<svg width="1280" height="720" xmlns="http://www.w3.org/2000/svg" xmlns:xlink="http://www.w3.org/1999/xlink" overflow="hidden"><defs><filter id="fx0" x="-10%" y="-10%" width="120%" height="120%" filterUnits="userSpaceOnUse" primitiveUnits="userSpaceOnUse"><feComponentTransfer color-interpolation-filters="sRGB"><feFuncR type="discrete" tableValues="0 0"/><feFuncG type="discrete" tableValues="0 0"/><feFuncB type="discrete" tableValues="0 0"/><feFuncA type="linear" slope="0.4" intercept="0"/></feComponentTransfer><feGaussianBlur stdDeviation="1.77778 1.77778"/></filter><filter id="fx1" x="-10%" y="-10%" width="120%" height="120%" filterUnits="userSpaceOnUse" primitiveUnits="userSpaceOnUse"><feComponentTransfer color-interpolation-filters="sRGB"><feFuncR type="discrete" tableValues="0 0"/><feFuncG type="discrete" tableValues="0 0"/><feFuncB type="discrete" tableValues="0 0"/><feFuncA type="linear" slope="0.4" intercept="0"/></feComponentTransfer><feGaussianBlur stdDeviation="1.77778 1.77778"/></filter><filter id="fx2" x="-10%" y="-10%" width="120%" height="120%" filterUnits="userSpaceOnUse" primitiveUnits="userSpaceOnUse"><feComponentTransfer color-interpolation-filters="sRGB"><feFuncR type="discrete" tableValues="0 0"/><feFuncG type="discrete" tableValues="0 0"/><feFuncB type="discrete" tableValues="0 0"/><feFuncA type="linear" slope="0.4" intercept="0"/></feComponentTransfer><feGaussianBlur stdDeviation="1.77778 1.77778"/></filter><filter id="fx3" x="-10%" y="-10%" width="120%" height="120%" filterUnits="userSpaceOnUse" primitiveUnits="userSpaceOnUse"><feComponentTransfer color-interpolation-filters="sRGB"><feFuncR type="discrete" tableValues="0 0"/><feFuncG type="discrete" tableValues="0 0"/><feFuncB type="discrete" tableValues="0 0"/><feFuncA type="linear" slope="0.4" intercept="0"/></feComponentTransfer><feGaussianBlur stdDeviation="1.77778 1.77778"/></filter><filter id="fx4" x="-10%" y="-10%" width="120%" height="120%" filterUnits="userSpaceOnUse" primitiveUnits="userSpaceOnUse"><feComponentTransfer color-interpolation-filters="sRGB"><feFuncR type="discrete" tableValues="0 0"/><feFuncG type="discrete" tableValues="0 0"/><feFuncB type="discrete" tableValues="0 0"/><feFuncA type="linear" slope="0.25098" intercept="0"/></feComponentTransfer><feGaussianBlur stdDeviation="1.77778 1.77778"/></filter><filter id="fx5" x="-10%" y="-10%" width="120%" height="120%" filterUnits="userSpaceOnUse" primitiveUnits="userSpaceOnUse"><feComponentTransfer color-interpolation-filters="sRGB"><feFuncR type="discrete" tableValues="0 0"/><feFuncG type="discrete" tableValues="0 0"/><feFuncB type="discrete" tableValues="0 0"/><feFuncA type="linear" slope="0.25098" intercept="0"/></feComponentTransfer><feGaussianBlur stdDeviation="1.77778 1.77778"/></filter><filter id="fx6" x="-10%" y="-10%" width="120%" height="120%" filterUnits="userSpaceOnUse" primitiveUnits="userSpaceOnUse"><feComponentTransfer color-interpolation-filters="sRGB"><feFuncR type="discrete" tableValues="0 0"/><feFuncG type="discrete" tableValues="0 0"/><feFuncB type="discrete" tableValues="0 0"/><feFuncA type="linear" slope="0.25098" intercept="0"/></feComponentTransfer><feGaussianBlur stdDeviation="1.77778 1.77778"/></filter><filter id="fx7" x="-10%" y="-10%" width="120%" height="120%" filterUnits="userSpaceOnUse" primitiveUnits="userSpaceOnUse"><feComponentTransfer color-interpolation-filters="sRGB"><feFuncR type="discrete" tableValues="0 0"/><feFuncG type="discrete" tableValues="0 0"/><feFuncB type="discrete" tableValues="0 0"/><feFuncA type="linear" slope="0.25098" intercept="0"/></feComponentTransfer><feGaussianBlur stdDeviation="1.77778 1.77778"/></filter><filter id="fx8" x="-10%" y="-10%" width="120%" height="120%" filterUnits="userSpaceOnUse" primitiveUnits="userSpaceOnUse"><feComponentTransfer color-interpolation-filters="sRGB"><feFuncR type="discrete" tableValues="0 0"/><feFuncG type="discrete" tableValues="0 0"/><feFuncB type="discrete" tableValues="0 0"/><feFuncA type="linear" slope="0.25098" intercept="0"/></feComponentTransfer><feGaussianBlur stdDeviation="1.77778 1.77778"/></filter><filter id="fx9" x="-10%" y="-10%" width="120%" height="120%" filterUnits="userSpaceOnUse" primitiveUnits="userSpaceOnUse"><feComponentTransfer color-interpolation-filters="sRGB"><feFuncR type="discrete" tableValues="0 0"/><feFuncG type="discrete" tableValues="0 0"/><feFuncB type="discrete" tableValues="0 0"/><feFuncA type="linear" slope="0.25098" intercept="0"/></feComponentTransfer><feGaussianBlur stdDeviation="1.77778 1.77778"/></filter><filter id="fx10" x="-10%" y="-10%" width="120%" height="120%" filterUnits="userSpaceOnUse" primitiveUnits="userSpaceOnUse"><feComponentTransfer color-interpolation-filters="sRGB"><feFuncR type="discrete" tableValues="0 0"/><feFuncG type="discrete" tableValues="0 0"/><feFuncB type="discrete" tableValues="0 0"/><feFuncA type="linear" slope="0.4" intercept="0"/></feComponentTransfer><feGaussianBlur stdDeviation="1.77778 1.77778"/></filter><filter id="fx11" x="-10%" y="-10%" width="120%" height="120%" filterUnits="userSpaceOnUse" primitiveUnits="userSpaceOnUse"><feComponentTransfer color-interpolation-filters="sRGB"><feFuncR type="discrete" tableValues="0 0"/><feFuncG type="discrete" tableValues="0 0"/><feFuncB type="discrete" tableValues="0 0"/><feFuncA type="linear" slope="0.25098" intercept="0"/></feComponentTransfer><feGaussianBlur stdDeviation="1.77778 1.77778"/></filter><filter id="fx12" x="-10%" y="-10%" width="120%" height="120%" filterUnits="userSpaceOnUse" primitiveUnits="userSpaceOnUse"><feComponentTransfer color-interpolation-filters="sRGB"><feFuncR type="discrete" tableValues="0 0"/><feFuncG type="discrete" tableValues="0 0"/><feFuncB type="discrete" tableValues="0 0"/><feFuncA type="linear" slope="0.25098" intercept="0"/></feComponentTransfer><feGaussianBlur stdDeviation="1.77778 1.77778"/></filter><clipPath id="clip13"><rect x="0" y="0" width="1280" height="720"/></clipPath><clipPath id="clip14"><path d="M789.5 126.5C779.007 126.5 770.5 137.731 770.5 151.585L770.5 168.5 884.5 168.5 884.5 151.585C884.5 137.731 875.993 126.5 865.5 126.5ZM1.90735e-05 1.07288e-05 1280 1.07288e-05 1280 720 1.90735e-05 720Z" fill-rule="evenodd" clip-rule="evenodd"/></clipPath><clipPath id="clip15"><path d="M770.5 168.5 770.5 482.598C770.5 494.694 779.007 504.5 789.5 504.5L865.5 504.5C875.993 504.5 884.5 494.694 884.5 482.598L884.5 168.5ZM1.90735e-05 1.07288e-05 1280 1.07288e-05 1280 720 1.90735e-05 720Z" fill-rule="evenodd" clip-rule="evenodd"/></clipPath><clipPath id="clip16"><path d="M184.5 127.5 184.5 502.5 527.5 502.5 527.5 127.5ZM1.90735e-05 1.07288e-05 1280 1.07288e-05 1280 720 1.90735e-05 720Z" fill-rule="evenodd" clip-rule="evenodd"/></clipPath><clipPath id="clip17"><rect x="5" y="1" width="18" height="18"/></clipPath><clipPath id="clip18"><path d="M207.5 160.5 207.5 205.5 498.5 205.5 498.5 160.5ZM1.90735e-05 1.07288e-05 1280 1.07288e-05 1280 720 1.90735e-05 720Z" fill-rule="evenodd" clip-rule="evenodd"/></clipPath><clipPath id="clip19"><path d="M207.5 214.5 207.5 268.5 498.5 268.5 498.5 214.5ZM1.90735e-05 1.07288e-05 1280 1.07288e-05 1280 720 1.90735e-05 720Z" fill-rule="evenodd" clip-rule="evenodd"/></clipPath><clipPath id="clip20"><path d="M207.5 275.5 207.5 321.5 498.5 321.5 498.5 275.5ZM1.90735e-05 1.07288e-05 1280 1.07288e-05 1280 720 1.90735e-05 720Z" fill-rule="evenodd" clip-rule="evenodd"/></clipPath><clipPath id="clip21"><path d="M206.5 370.5 206.5 395.5 498.5 395.5 498.5 370.5ZM1.90735e-05 1.07288e-05 1280 1.07288e-05 1280 720 1.90735e-05 720Z" fill-rule="evenodd" clip-rule="evenodd"/></clipPath><clipPath id="clip22"><path d="M206.5 402.5 206.5 432.5 498.5 432.5 498.5 402.5ZM1.90735e-05 1.07288e-05 1280 1.07288e-05 1280 720 1.90735e-05 720Z" fill-rule="evenodd" clip-rule="evenodd"/></clipPath><clipPath id="clip23"><path d="M206.5 440.5 206.5 475.5 498.5 475.5 498.5 440.5ZM1.90735e-05 1.07288e-05 1280 1.07288e-05 1280 720 1.90735e-05 720Z" fill-rule="evenodd" clip-rule="evenodd"/></clipPath><clipPath id="clip24"><path d="M564.334 126.5C551.723 126.5 541.5 136.723 541.5 149.334L541.5 240.666C541.5 253.277 551.723 263.5 564.334 263.5L733.666 263.5C746.277 263.5 756.5 253.277 756.5 240.666L756.5 149.334C756.5 136.723 746.277 126.5 733.666 126.5ZM1.90735e-05 1.07288e-05 1280 1.07288e-05 1280 720 1.90735e-05 720Z" fill-rule="evenodd" clip-rule="evenodd"/></clipPath><clipPath id="clip25"><path d="M551.5 153.5 551.5 250.5 744.5 250.5 744.5 153.5ZM1.90735e-05 1.07288e-05 1280 1.07288e-05 1280 720 1.90735e-05 720Z" fill-rule="evenodd" clip-rule="evenodd"/></clipPath></defs><g clip-path="url(#clip13)"><rect x="0" y="0" width="1280" height="720" fill="#FFFFFF"/><g clip-path="url(#clip14)"><g filter="url(#fx0)" transform="translate(767 119)"><g><path d="M26.5004 7.50005 102.5 7.50005C112.993 7.50005 121.5 18.7309 121.5 32.5849L121.5 49.5001 7.50006 49.5001 7.50006 32.5849C7.50006 18.7309 16.0068 7.50005 26.5004 7.50005Z" stroke="#192D54" stroke-miterlimit="8" fill="#FEE695" fill-rule="evenodd"/></g></g></g><path d="M789.5 126.5 865.5 126.5C875.993 126.5 884.5 137.731 884.5 151.585L884.5 168.5 770.5 168.5 770.5 151.585C770.5 137.731 779.007 126.5 789.5 126.5Z" stroke="#192D54" stroke-width="1.33333" stroke-miterlimit="8" fill="#FEE695" fill-rule="evenodd"/><g clip-path="url(#clip15)"><g filter="url(#fx1)" transform="translate(766 164)"><g><path d="M7.32849 7.32848 121.328 7.32848 121.328 321.426C121.328 333.523 112.822 343.328 102.328 343.328L26.3288 343.328C15.8352 343.328 7.32849 333.523 7.32849 321.426L7.32849 7.32848Z" stroke="#192D54" stroke-miterlimit="8" fill="#FFF2CA" fill-rule="evenodd"/></g></g></g><path d="M770.5 168.5 884.5 168.5 884.5 482.598C884.5 494.694 875.993 504.5 865.5 504.5L789.5 504.5C779.007 504.5 770.5 494.694 770.5 482.598L770.5 168.5Z" stroke="#192D54" stroke-width="1.33333" stroke-miterlimit="8" fill="#FFF2CA" fill-rule="evenodd"/><g clip-path="url(#clip16)"><g filter="url(#fx2)" transform="translate(180 123)"><g><rect x="7.32848" y="7.32848" width="343" height="375" stroke="#000000" stroke-miterlimit="8" fill="#FFF2CA"/></g></g><g clip-path="url(#clip17)" filter="url(#fx3)" transform="translate(341 309)"><g><path d="M3.43359-8.40234C3.70703-8.40234 3.95312-8.33984 4.17188-8.21484 4.39062-8.08984 4.55859-7.91211 4.67578-7.68164 4.79297-7.45117 4.85156-7.19531 4.85156-6.91406 4.85156-6.625 4.79102-6.36523 4.66992-6.13477 4.54883-5.9043 4.37891-5.72852 4.16016-5.60742 3.94141-5.48633 3.69922-5.42578 3.43359-5.42578 3.17578-5.42578 2.93945-5.48633 2.72461-5.60742 2.50977-5.72852 2.3418-5.9043 2.2207-6.13477 2.09961-6.36523 2.03906-6.625 2.03906-6.91406 2.03906-7.19531 2.09766-7.45117 2.21484-7.68164 2.33203-7.91211 2.49805-8.08984 2.71289-8.21484 2.92773-8.33984 3.16797-8.40234 3.43359-8.40234Z" fill="#D0CECE" transform="translate(11.3027 17)"/></g></g></g><rect x="184.5" y="127.5" width="343" height="375" stroke="#000000" stroke-width="1.33333" stroke-miterlimit="8" fill="#FFF2CA"/><path d="M3.43359-8.40234C3.70703-8.40234 3.95312-8.33984 4.17188-8.21484 4.39062-8.08984 4.55859-7.91211 4.67578-7.68164 4.79297-7.45117 4.85156-7.19531 4.85156-6.91406 4.85156-6.625 4.79102-6.36523 4.66992-6.13477 4.54883-5.9043 4.37891-5.72852 4.16016-5.60742 3.94141-5.48633 3.69922-5.42578 3.43359-5.42578 3.17578-5.42578 2.93945-5.48633 2.72461-5.60742 2.50977-5.72852 2.3418-5.9043 2.2207-6.13477 2.09961-6.36523 2.03906-6.625 2.03906-6.91406 2.03906-7.19531 2.09766-7.45117 2.21484-7.68164 2.33203-7.91211 2.49805-8.08984 2.71289-8.21484 2.92773-8.33984 3.16797-8.40234 3.43359-8.40234Z" fill="#D0CECE" transform="translate(349.474 323)"/><text fill="#000000" fill-opacity="0" font-family="Arial,Arial_MSFontService,sans-serif" font-size="2.97656" x="2.03906" y="-5.79785">·</text><path d="M197 172.001C197 153.775 211.775 139 230.001 139L478.999 139C497.225 139 512 153.775 512 172.001L512 303.999C512 322.225 497.225 337 478.999 337L230.001 337C211.775 337 197 322.225 197 303.999Z" fill="#E3E8EF" fill-rule="evenodd"/><path d="M798 218C798 203.641 809.641 192 824 192 838.359 192 850 203.641 850 218 850 232.359 838.359 244 824 244 809.641 244 798 232.359 798 218Z" fill="#FBC527" fill-rule="evenodd"/><g clip-path="url(#clip18)"><g filter="url(#fx4)" transform="translate(203 156)"><g><rect x="7.32848" y="7.32848" width="291" height="45" stroke="#CBD5E1" stroke-linejoin="round" stroke-miterlimit="10" fill="#FFFFFF"/></g></g></g><rect x="207.5" y="160.5" width="291" height="45" stroke="#CBD5E1" stroke-linejoin="round" stroke-miterlimit="10" fill="#FFFFFF"/><text font-family="Times New Roman,Times New Roman_MSFontService,sans-serif" font-weight="400" font-size="10.6667" transform="translate(212.414 175)">Longli Technology’s VR backlight display products have received</text><text font-family="Times New Roman,Times New Roman_MSFontService,sans-serif" font-weight="400" font-size="10.6667" transform="translate(212.414 188)">strong recognition from clients including Meta, Pico, and Vajor,</text><text font-family="Times New Roman,Times New Roman_MSFontService,sans-serif" font-weight="400" font-size="10.6667" transform="translate(212.414 201)">and have already entered large</text><text font-family="Times New Roman,Times New Roman_MSFontService,sans-serif" font-weight="400" font-size="10.6667" transform="translate(341.914 201)">-</text><text font-family="Times New Roman,Times New Roman_MSFontService,sans-serif" font-weight="400" font-size="10.6667" transform="translate(345.414 201)">scale mass production and delivery.</text><g clip-path="url(#clip19)"><g filter="url(#fx5)" transform="translate(203 210)"><g><rect x="7.32848" y="7.32848" width="291" height="54" stroke="#CBD5E1" stroke-linejoin="round" stroke-miterlimit="10" fill="#FFFFFF"/></g></g></g><rect x="207.5" y="214.5" width="291" height="54" stroke="#CBD5E1" stroke-linejoin="round" stroke-miterlimit="10" fill="#FFFFFF"/><g clip-path="url(#clip20)"><g filter="url(#fx6)" transform="translate(203 271)"><g><rect x="7.32848" y="7.32849" width="291" height="46" stroke="#CBD5E1" stroke-linejoin="round" stroke-miterlimit="10" fill="#FFFFFF"/></g></g></g><rect x="207.5" y="275.5" width="291" height="46" stroke="#CBD5E1" stroke-linejoin="round" stroke-miterlimit="10" fill="#FFFFFF"/><text font-family="Times New Roman,Times New Roman_MSFontService,sans-serif" font-weight="400" font-size="10.6667" transform="translate(216.414 226)">Jinhaitong has repurchased a total of 2.3316 million shares, with</text><text font-family="Times New Roman,Times New Roman_MSFontService,sans-serif" font-weight="400" font-size="10.6667" transform="translate(216.414 239)">a total expenditure of RMB 159 million, representing 3.886% of</text><text font-family="Times New Roman,Times New Roman_MSFontService,sans-serif" font-weight="400" font-size="10.6667" transform="translate(216.414 252)">its total share capital.The highest repurchase price was RMB</text><text font-family="Times New Roman,Times New Roman_MSFontService,sans-serif" font-weight="400" font-size="10.6667" transform="translate(216.414 265)">74.98 per share, and the lowest price was RMB 60.21 per share.</text><text font-family="Times New Roman,Times New Roman_MSFontService,sans-serif" font-weight="400" font-size="10.6667" transform="translate(215.814 288)">Kingsoft Data has experienced net selling by Northbound capital</text><text font-family="Times New Roman,Times New Roman_MSFontService,sans-serif" font-weight="400" font-size="10.6667" transform="translate(215.814 301)">for five consecutive trading days, with total net sales reaching</text><text font-family="Times New Roman,Times New Roman_MSFontService,sans-serif" font-weight="400" font-size="10.6667" transform="translate(215.814 314)">RMB 13.1713 million.</text><text font-family="Times New Roman,Times New Roman_MSFontService,sans-serif" font-weight="700" font-size="13.3333" transform="translate(338.681 154)">Input</text><path d="M196 370.5C196 357.521 206.521 347 219.5 347L487.5 347C500.479 347 511 357.521 511 370.5L511 464.5C511 477.479 500.479 488 487.5 488L219.5 488C206.521 488 196 477.479 196 464.5Z" fill="#E3E8EF" fill-rule="evenodd"/><g clip-path="url(#clip21)"><g filter="url(#fx7)" transform="translate(202 366)"><g><rect x="7.32848" y="7.32849" width="292" height="25" stroke="#CBD5E1" stroke-linejoin="round" stroke-miterlimit="10" fill="#FFFFFF"/></g></g></g><rect x="206.5" y="370.5" width="292" height="25" stroke="#CBD5E1" stroke-linejoin="round" stroke-miterlimit="10" fill="#FFFFFF"/><text font-family="Times New Roman,Times New Roman_MSFontService,sans-serif" font-weight="400" font-size="10.6667" transform="translate(265.948 386)">Hold tight</text><text font-family="Times New Roman,Times New Roman_MSFontService,sans-serif" font-weight="400" font-size="10.6667" transform="translate(312.281 386)">—</text><text font-family="Times New Roman,Times New Roman_MSFontService,sans-serif" font-weight="400" font-size="10.6667" transform="translate(325.614 386)">it’s getting ready to take off!</text><g clip-path="url(#clip22)"><g filter="url(#fx8)" transform="translate(202 398)"><g><rect x="7.32848" y="7.32849" width="292" height="30" stroke="#CBD5E1" stroke-linejoin="round" stroke-miterlimit="10" fill="#FFFFFF"/></g></g></g><rect x="206.5" y="402.5" width="292" height="30" stroke="#CBD5E1" stroke-linejoin="round" stroke-miterlimit="10" fill="#FFFFFF"/><g clip-path="url(#clip23)"><g filter="url(#fx9)" transform="translate(202 436)"><g><rect x="7.32848" y="7.32849" width="292" height="35" stroke="#CBD5E1" stroke-linejoin="round" stroke-miterlimit="10" fill="#FFFFFF"/></g></g></g><rect x="206.5" y="440.5" width="292" height="35" stroke="#CBD5E1" stroke-linejoin="round" stroke-miterlimit="10" fill="#FFFFFF"/><text font-family="Times New Roman,Times New Roman_MSFontService,sans-serif" font-weight="400" font-size="10.6667" transform="translate(222.814 414)">Price movement meets regulatory expectations, with no major</text><text font-family="Times New Roman,Times New Roman_MSFontService,sans-serif" font-weight="400" font-size="10.6667" transform="translate(222.814 427)">spikes or drops.</text><text font-family="Times New Roman,Times New Roman_MSFontService,sans-serif" font-weight="400" font-size="10.6667" transform="translate(218.614 455)">A sudden plunge like this must have something behind it</text><text font-family="Times New Roman,Times New Roman_MSFontService,sans-serif" font-weight="400" font-size="10.6667" transform="translate(463.948 455)">—</text><text font-family="Times New Roman,Times New Roman_MSFontService,sans-serif" font-weight="400" font-size="10.6667" transform="translate(477.281 455)">the</text><text font-family="Times New Roman,Times New Roman_MSFontService,sans-serif" font-weight="400" font-size="10.6667" transform="translate(218.614 468)">major players are clearly pulling out!</text><g clip-path="url(#clip24)"><g filter="url(#fx10)" transform="translate(537 122)"><g><path d="M7.32849 30.1624C7.32849 17.5516 17.5516 7.32848 30.1624 7.32848L199.495 7.32848C212.105 7.32848 222.328 17.5516 222.328 30.1624L222.328 121.495C222.328 134.105 212.105 144.328 199.495 144.328L30.1624 144.328C17.5516 144.328 7.32849 134.105 7.32849 121.495Z" stroke="#94A3B8" stroke-miterlimit="8" stroke-dasharray="4 1.33333" fill="#E3E8EF" fill-rule="evenodd"/></g></g></g><path d="M541.5 149.334C541.5 136.723 551.723 126.5 564.334 126.5L733.666 126.5C746.277 126.5 756.5 136.723 756.5 149.334L756.5 240.666C756.5 253.277 746.277 263.5 733.666 263.5L564.334 263.5C551.723 263.5 541.5 253.277 541.5 240.666Z" stroke="#94A3B8" stroke-width="1.33333" stroke-linecap="square" stroke-miterlimit="8" stroke-dasharray="4 1.33333" fill="#E3E8EF" fill-rule="evenodd"/><text font-family="Times New Roman,Times New Roman_MSFontService,sans-serif" font-weight="700" font-size="13.3333" transform="translate(632.436 144)">Prompt</text><g clip-path="url(#clip25)"><g filter="url(#fx11)" transform="translate(547 149)"><g><rect x="7.32849" y="7.32848" width="193" height="97" stroke="#CBD5E1" stroke-linejoin="round" stroke-miterlimit="10" fill="#FFFFFF"/></g></g><g filter="url(#fx12)" transform="translate(641 188)"><g><path d="M8.46716 7.52893C8.65466 7.52893 8.81287 7.53674 8.94177 7.55237 9.07068 7.56799 9.1781 7.59143 9.26404 7.62268 9.34998 7.65393 9.42419 7.6969 9.48669 7.75159 9.54919 7.80627 9.61169 7.87659 9.67419 7.96252L11.3617 10.6696C11.4164 10.7555 11.4515 10.8297 11.4672 10.8922 11.4828 10.9547 11.4691 11.0055 11.4261 11.0446 11.3832 11.0836 11.3129 11.1149 11.2152 11.1383 11.1176 11.1617 10.9828 11.1735 10.8109 11.1735 10.6547 11.1735 10.5258 11.1676 10.4242 11.1559 10.3226 11.1442 10.2347 11.1246 10.1605 11.0973 10.0863 11.0699 10.0219 11.0328 9.96716 10.986 9.91248 10.9391 9.85779 10.8766 9.8031 10.7985L7.68201 8.06799C7.61951 7.99768 7.58435 7.92932 7.57654 7.86292 7.56873 7.79651 7.59216 7.73792 7.64685 7.68713 7.70154 7.63635 7.79724 7.59729 7.93396 7.56995 8.07068 7.5426 8.24841 7.52893 8.46716 7.52893Z" stroke="#FFFFFF" stroke-linejoin="round" stroke-miterlimit="10" fill="#B6C7EA" fill-rule="evenodd"/></g></g></g><rect x="551.5" y="153.5" width="193" height="97" stroke="#CBD5E1" stroke-linejoin="round" stroke-miterlimit="10" fill="#FFFFFF"/><path d="M646.639 192.701C646.826 192.701 646.984 192.708 647.113 192.724 647.242 192.74 647.35 192.763 647.436 192.794 647.522 192.826 647.596 192.868 647.658 192.923 647.721 192.978 647.783 193.048 647.846 193.134L649.533 195.841C649.588 195.927 649.623 196.001 649.639 196.064 649.654 196.126 649.641 196.177 649.598 196.216 649.555 196.255 649.484 196.286 649.387 196.31 649.289 196.333 649.154 196.345 648.982 196.345 648.826 196.345 648.697 196.339 648.596 196.327 648.494 196.316 648.406 196.296 648.332 196.269 648.258 196.242 648.193 196.204 648.139 196.158 648.084 196.111 648.029 196.048 647.975 195.97L645.854 193.24C645.791 193.169 645.756 193.101 645.748 193.034 645.74 192.968 645.764 192.909 645.818 192.859 645.873 192.808 645.969 192.769 646.106 192.742 646.242 192.714 646.42 192.701 646.639 192.701Z" stroke="#FFFFFF" stroke-linejoin="round" stroke-miterlimit="10" fill="#B6C7EA" fill-rule="evenodd"/><text fill="#000000" fill-opacity="0" font-family="Arial,Arial_MSFontService,sans-serif" font-size="3.64453" x="645.747" y="195.889">`</text><text font-family="Times New Roman,Times New Roman_MSFontService,sans-serif" font-weight="400" font-size="10.6667" transform="translate(558.015 171)">You are a professional sentiment analysis</text><text font-family="Times New Roman,Times New Roman_MSFontService,sans-serif" font-weight="400" font-size="10.6667" transform="translate(558.015 184)">expert specializing in financial news and</text><text font-family="Times New Roman,Times New Roman_MSFontService,sans-serif" font-weight="400" font-size="10.6667" transform="translate(558.015 197)">stock commentary. Analyze the sentiment</text><text font-family="Times New Roman,Times New Roman_MSFontService,sans-serif" font-weight="400" font-size="10.6667" transform="translate(558.015 210)">polarity of the following financial news</text><text font-family="Times New Roman,Times New Roman_MSFontService,sans-serif" font-weight="400" font-size="10.6667" transform="translate(558.015 223)">summary or stock comment and classify it</text><text font-family="Times New Roman,Times New Roman_MSFontService,sans-serif" font-weight="400" font-size="10.6667" transform="translate(558.015 235)">as bullish, neutral, or bearish: {text}</text><path d="M815.5 204.333C815.5 203.873 815.873 203.5 816.333 203.5L819.667 203.5C820.127 203.5 820.5 203.873 820.5 204.333L820.5 213.667C820.5 214.127 820.127 214.5 819.667 214.5L816.333 214.5C815.873 214.5 815.5 214.127 815.5 213.667Z" stroke="#2E54A1" stroke-width="1.33333" stroke-miterlimit="8" fill="#004B90" fill-rule="evenodd"/><path d="M842.5 223.5C842.5 229.575 834.889 234.5 825.5 234.5 816.111 234.5 808.5 229.575 808.5 223.5L814 223.5C814 226.538 819.149 229 825.5 229 831.851 229 837 226.538 837 223.5Z" stroke="#2E54A1" stroke-width="1.33333" stroke-miterlimit="8" fill="#004B90" fill-rule="evenodd"/><path d="M828.5 204.5C828.5 203.948 828.948 203.5 829.5 203.5L833.5 203.5C834.052 203.5 834.5 203.948 834.5 204.5L834.5 213.5C834.5 214.052 834.052 214.5 833.5 214.5L829.5 214.5C828.948 214.5 828.5 214.052 828.5 213.5Z" stroke="#2E54A1" stroke-width="1.33333" stroke-miterlimit="8" fill="#004B90" fill-rule="evenodd"/><path d="M824.033 181 825.159 181 824.828 192.262 824.033 192.262C809.79 192.262 798.262 203.79 798.262 218.033 798.262 232.21 809.79 243.738 824.033 243.738 838.21 243.738 849.738 232.21 849.738 218.033 849.738 213.528 848.611 209.355 846.624 205.711L846.028 204.717 855.435 198.49 855.634 198.821C859.013 204.386 861 210.944 861 218.033 861 238.438 844.438 255 824.033 255 803.562 255 787 238.438 787 218.033 787 197.562 803.562 181 824.033 181Z" fill="#57CA3E" fill-rule="evenodd"/><path d="M825.268 181 826.074 181C838.219 181.605 848.82 188.059 855.195 197.538L856 198.748 846.472 205 846.405 205C842.043 197.807 834.394 192.899 825.47 192.429L825 192.429 825.268 181Z" fill="#B6C7EA" fill-rule="evenodd"/><path d="M798 320C798 305.641 809.641 294 824 294 838.359 294 850 305.641 850 320 850 334.359 838.359 346 824 346 809.641 346 798 334.359 798 320Z" fill="#FBC527" fill-rule="evenodd"/><path d="M815.5 306.333C815.5 305.873 815.873 305.5 816.333 305.5L819.667 305.5C820.127 305.5 820.5 305.873 820.5 306.333L820.5 316.667C820.5 317.127 820.127 317.5 819.667 317.5L816.333 317.5C815.873 317.5 815.5 317.127 815.5 316.667Z" stroke="#2E54A1" stroke-width="1.33333" stroke-miterlimit="8" fill="#004B90" fill-rule="evenodd"/><path d="M828.5 306.5C828.5 305.948 828.948 305.5 829.5 305.5L833.5 305.5C834.052 305.5 834.5 305.948 834.5 306.5L834.5 316.5C834.5 317.052 834.052 317.5 833.5 317.5L829.5 317.5C828.948 317.5 828.5 317.052 828.5 316.5Z" stroke="#2E54A1" stroke-width="1.33333" stroke-miterlimit="8" fill="#004B90" fill-rule="evenodd"/><path d="M825.268 282 826.074 282C838.219 282.655 848.82 289.647 855.195 299.916L856 301.227 846.472 308 846.405 308C842.043 300.207 834.394 294.891 825.47 294.381L825 294.381 825.268 282Z" fill="#B6C7EA" fill-rule="evenodd"/><path d="M825 282 825 293.414 823.74 293.414C810.081 294.153 799.272 305.568 799.272 319.534 799.272 333.432 810.081 344.847 823.74 345.518L825 345.586 825 357 823.143 356.933C803.582 355.926 788 339.543 788 319.534 788 299.457 803.582 283.074 823.143 282.067L825 282Z" fill="#C8E5B3" fill-rule="evenodd"/><path d="M824.056 283 825 283 824.722 294 824.056 294 824 294 824 283 824.056 283Z" fill="#C8E5B3" fill-rule="evenodd"/><path d="M855.44 300 855.639 300.334C859.014 305.947 861 312.563 861 319.713 861 340.294 844.453 357 824.066 357L824 357 824 345.64 824.066 345.64C838.231 345.64 849.748 334.013 849.748 319.713 849.748 315.169 848.623 310.959 846.637 307.284L846.041 306.281 855.44 300Z" fill="#B6C7EA" fill-rule="evenodd"/><path d="M815.683 328.5 833.317 328.5C835.627 328.5 837.5 329.843 837.5 331.5 837.5 333.157 835.627 334.5 833.317 334.5L815.683 334.5C813.373 334.5 811.5 333.157 811.5 331.5 811.5 329.843 813.373 328.5 815.683 328.5Z" stroke="#2E54A1" stroke-width="1.33333" stroke-miterlimit="8" fill="#004B90" fill-rule="evenodd"/><path d="M798 427C798 412.641 809.641 401 824 401 838.359 401 850 412.641 850 427 850 441.359 838.359 453 824 453 809.641 453 798 441.359 798 427Z" fill="#FBC527" fill-rule="evenodd"/><path d="M815.5 414.333C815.5 413.873 815.873 413.5 816.333 413.5L819.667 413.5C820.127 413.5 820.5 413.873 820.5 414.333L820.5 423.667C820.5 424.127 820.127 424.5 819.667 424.5L816.333 424.5C815.873 424.5 815.5 424.127 815.5 423.667Z" stroke="#2E54A1" stroke-width="1.33333" stroke-miterlimit="8" fill="#004B90" fill-rule="evenodd"/><path d="M808.5 442C808.5 435.649 816.111 430.5 825.5 430.5 834.889 430.5 842.5 435.649 842.5 442L836.75 442C836.75 438.824 831.713 436.25 825.5 436.25 819.287 436.25 814.25 438.824 814.25 442Z" stroke="#2E54A1" stroke-width="1.33333" stroke-miterlimit="8" fill="#004B90" fill-rule="evenodd"/><path d="M828.5 414.5C828.5 413.948 828.948 413.5 829.5 413.5L833.5 413.5C834.052 413.5 834.5 413.948 834.5 414.5L834.5 423.5C834.5 424.052 834.052 424.5 833.5 424.5L829.5 424.5C828.948 424.5 828.5 424.052 828.5 423.5Z" stroke="#2E54A1" stroke-width="1.33333" stroke-miterlimit="8" fill="#004B90" fill-rule="evenodd"/><path d="M824.033 390 825.159 390 824.828 401.414 824.033 401.414C809.79 401.414 798.262 413.098 798.262 427.534 798.262 441.902 809.79 453.586 824.033 453.586 838.21 453.586 849.738 441.902 849.738 427.534 849.738 422.968 848.611 418.738 846.624 415.045L846.028 414.038 855.435 407.726 855.634 408.062C859.013 413.702 861 420.349 861 427.534 861 448.214 844.438 465 824.033 465 803.562 465 787 448.214 787 427.534 787 406.786 803.562 390 824.033 390Z" fill="#C81D31" fill-rule="evenodd"/><path d="M825.268 390 826.074 390C838.219 390.605 848.82 397.059 855.195 406.538L856 407.748 846.472 414 846.405 414C842.043 406.807 834.394 401.899 825.47 401.429L825 401.429 825.268 390Z" fill="#B6C7EA" fill-rule="evenodd"/><text font-family="Times New Roman,Times New Roman_MSFontService,sans-serif" font-weight="700" font-size="13.3333" transform="translate(807.782 151)">Output</text><text font-family="Times New Roman,Times New Roman_MSFontService,sans-serif" font-weight="700" font-size="13.3333" transform="translate(337.814 363)">Input</text><g><g><g><path d="M685.116 437.25 623.585 437.25C615.862 437.25 609.601 443.511 609.601 451.234 609.601 458.958 615.862 465.219 623.585 465.219L685.116 465.219C692.84 465.219 699.101 458.958 699.101 451.234 699.101 443.511 692.84 437.25 685.116 437.25ZM627.314 456.828C624.225 456.828 621.721 454.324 621.721 451.234 621.721 448.145 624.225 445.641 627.314 445.641 630.404 445.641 632.908 448.145 632.908 451.234 632.908 454.324 630.404 456.828 627.314 456.828ZM654.351 456.828C651.261 456.828 648.757 454.324 648.757 451.234 648.757 448.145 651.261 445.641 654.351 445.641 657.44 445.641 659.945 448.145 659.945 451.234 659.945 454.324 657.44 456.828 654.351 456.828ZM681.387 456.828C678.298 456.828 675.794 454.324 675.794 451.234 675.794 448.145 678.298 445.641 681.387 445.641 684.477 445.641 686.981 448.145 686.981 451.234 686.981 454.324 684.477 456.828 681.387 456.828Z" fill="#91ACE0"/><path d="M667.235 355.208C667.235 356.753 665.983 358.005 664.438 358.005 662.894 358.005 661.641 356.753 661.641 355.208 661.641 353.664 662.894 352.411 664.438 352.411 665.983 352.411 667.235 353.664 667.235 355.208Z" fill="#91ACE0"/><path d="M670.554 336.562 658.229 336.562 658.229 328.079C661.797 326.019 663.019 321.458 660.959 317.89 658.899 314.323 654.338 313.101 650.771 315.16 647.203 317.22 645.981 321.781 648.041 325.349 648.696 326.483 649.637 327.424 650.771 328.079L650.771 336.562 638.446 336.562C633.93 336.573 630.271 340.232 630.26 344.748L630.26 365.669C630.271 370.185 633.93 373.844 638.446 373.854L670.554 373.854C675.07 373.844 678.729 370.185 678.74 365.669L678.74 344.748C678.729 340.232 675.07 336.573 670.554 336.562ZM645.177 360.802C642.088 360.802 639.583 358.298 639.583 355.208 639.583 352.119 642.088 349.615 645.177 349.615 648.266 349.615 650.771 352.119 650.771 355.208 650.771 358.298 648.266 360.802 645.177 360.802ZM663.823 360.802C660.734 360.802 658.229 358.298 658.229 355.208 658.229 352.119 660.734 349.615 663.823 349.615 666.912 349.615 669.417 352.119 669.417 355.208 669.417 358.298 666.912 360.802 663.823 360.802Z" fill="#91ACE0"/><path d="M648.589 355.208C648.589 356.753 647.337 358.005 645.792 358.005 644.248 358.005 642.996 356.753 642.996 355.208 642.996 353.664 644.248 352.411 645.792 352.411 647.337 352.411 648.589 353.664 648.589 355.208Z" fill="#91ACE0"/><path d="M702.979 412.675 702.979 397.143C702.979 392.519 699.231 388.771 694.607 388.771L684.333 388.771 684.333 379.448 624.667 379.448 624.667 390.635 610.664 390.635C610.159 390.635 609.75 390.226 609.75 389.722L609.75 374.264C616.16 372.371 619.821 365.641 617.928 359.231 617.421 357.513 616.538 355.929 615.344 354.593L609.75 359.553C610.532 360.404 610.977 361.511 610.999 362.667 610.985 365.241 608.887 367.317 606.312 367.303 603.738 367.289 601.663 365.19 601.677 362.616 601.682 361.504 602.086 360.431 602.814 359.59L597.22 354.686C592.825 359.735 593.356 367.391 598.405 371.785 599.547 372.779 600.865 373.551 602.292 374.059L602.292 389.722C602.292 394.346 606.04 398.094 610.664 398.094L624.667 398.094 624.667 431.656 684.333 431.656 684.333 396.229 694.607 396.229C695.112 396.229 695.521 396.638 695.521 397.143L695.521 412.675C689.152 414.735 685.66 421.568 687.72 427.937 688.236 429.53 689.076 431 690.188 432.253L695.782 427.293C695.01 426.447 694.584 425.343 694.589 424.198 694.591 421.623 696.68 419.538 699.254 419.54 701.828 419.543 703.914 421.631 703.911 424.206 703.911 425.335 703.5 426.425 702.755 427.274L708.349 432.178C712.761 427.158 712.268 419.512 707.248 415.1 706.006 414.009 704.553 413.183 702.979 412.675ZM676.875 405.552 671.691 405.552C671.511 405.584 671.34 405.654 671.188 405.757L665.482 411.593 661.138 401.301 653.027 418.082 647.34 396.229 642.958 405.552 633.99 405.552 633.99 401.823 640.59 401.823 648.347 385.321 654.09 407.286 661.38 392.369 666.75 405.086 668.615 403.221C669.434 402.393 670.529 401.895 671.691 401.823L676.875 401.823Z" fill="#91ACE0"/></g></g></g><text font-family="Times New Roman,Times New Roman_MSFontService,sans-serif" font-style="italic" font-weight="700" font-size="13.3333" transform="translate(558.015 487)">Financial Sentiment Analysis Model</text><text font-family="Times New Roman,Times New Roman_MSFontService,sans-serif" font-weight="700" font-size="10.6667" transform="translate(808.98 269)">Bullish</text><text font-family="Times New Roman,Times New Roman_MSFontService,sans-serif" font-weight="700" font-size="10.6667" transform="translate(806.797 370)">Neutral</text><text font-family="Times New Roman,Times New Roman_MSFontService,sans-serif" font-weight="700" font-size="10.6667" transform="translate(807.782 479)">Bearish</text><path d="M527.895 314.963 584.363 356.415 583.574 357.49 527.106 316.037ZM585.26 352.939 589.342 360.897 580.526 359.388Z"/><path d="M0.379797-0.547904 60.0595 40.821 59.2999 41.9168-0.379797 0.547904ZM60.8626 37.3218 65.1586 45.1668 56.305 43.8967Z" transform="matrix(1 0 0 -1 703.5 360.667)"/><path d="M673 323.5C673 319.91 675.686 317 679 317 682.314 317 685 319.91 685 323.5 685 327.09 682.314 330 679 330 675.686 330 673 327.09 673 323.5Z" fill="#91ACE0" fill-rule="evenodd"/><path d="M681 306.5C681 301.806 684.582 298 689 298 693.418 298 697 301.806 697 306.5 697 311.194 693.418 315 689 315 684.582 315 681 311.194 681 306.5Z" fill="#91ACE0" fill-rule="evenodd"/><path d="M689 284.5C689 278.701 693.701 274 699.5 274 705.299 274 710 278.701 710 284.5 710 290.299 705.299 295 699.5 295 693.701 295 689 290.299 689 284.5Z" fill="#91ACE0" fill-rule="evenodd"/></g></svg>